<svg width="49" height="58" viewBox="0 0 49 58" fill="none" xmlns="http://www.w3.org/2000/svg">
<path d="M24.5 56.5058C37.4787 56.5058 48 45.9845 48 33.0058C48 20.0271 37.4787 9.50577 24.5 9.50577C11.5213 9.50577 1 20.0271 1 33.0058C1 45.9845 11.5213 56.5058 24.5 56.5058Z" stroke="#454545"/>
<path d="M23.6184 1L25.7225 1C27.175 1 28.3525 2.19008 28.3525 3.65812C28.3525 5.12616 27.175 6.31624 25.7225 6.31624L23.6184 6.31624C22.1659 6.31624 20.9884 5.12616 20.9884 3.65812C20.9884 2.19008 22.1659 1 23.6184 1Z" stroke="#00FFFF"/>
<path fill-rule="evenodd" clip-rule="evenodd" d="M24.4951 14H24.5049C24.781 14.0001 25.0048 14.224 25.0047 14.5001C25.0047 14.7763 24.7807 15.0001 24.5046 15H24.4954C24.2193 15.0001 23.9953 14.7763 23.9953 14.5001C23.9952 14.224 24.219 14.0001 24.4951 14ZM33.0645 16.6563C33.2027 16.4172 33.5086 16.3355 33.7477 16.4737L33.756 16.4786C33.995 16.6169 34.0766 16.9228 33.9382 17.1618C33.7999 17.4008 33.494 17.4823 33.255 17.344L33.2471 17.3394C33.008 17.2012 32.9263 16.8953 33.0645 16.6563ZM15.9355 16.6563C16.0737 16.8953 15.992 17.2012 15.7529 17.3394L15.745 17.344C15.506 17.4823 15.2001 17.4008 15.0618 17.1618C14.9234 16.9228 15.005 16.6169 15.244 16.4786L15.2523 16.4737C15.4914 16.3355 15.7973 16.4172 15.9355 16.6563ZM39.8382 23.0618C40.0772 22.9234 40.3831 23.005 40.5214 23.244L40.5263 23.2523C40.6645 23.4914 40.5828 23.7973 40.3437 23.9355C40.1047 24.0737 39.7988 23.992 39.6606 23.7529L39.656 23.745C39.5177 23.506 39.5992 23.2001 39.8382 23.0618ZM9.16178 23.0618C9.40077 23.2001 9.48234 23.506 9.34398 23.745L9.3394 23.7529C9.20117 23.992 8.89532 24.0737 8.65626 23.9355C8.41721 23.7973 8.33548 23.4914 8.47371 23.2523L8.47855 23.244C8.61691 23.005 8.9228 22.9234 9.16178 23.0618ZM6.50013 31.9953C6.77627 31.9953 7.00007 32.2193 7 32.4954V32.5046C7.00007 32.7807 6.77627 33.0047 6.50013 33.0047C6.22399 33.0048 6.00007 32.781 6 32.5049V32.4951C6.00007 32.219 6.22399 31.9952 6.50013 31.9953ZM42.4999 31.9953C42.776 31.9952 42.9999 32.219 43 32.4951V32.5049C42.9999 32.781 42.776 33.0048 42.4999 33.0047C42.2237 33.0047 41.9999 32.7807 42 32.5046V32.4954C41.9999 32.2193 42.2237 31.9953 42.4999 31.9953ZM40.3437 41.0645C40.5828 41.2027 40.6645 41.5086 40.5263 41.7477L40.5214 41.756C40.3831 41.995 40.0772 42.0766 39.8382 41.9382C39.5992 41.7999 39.5177 41.494 39.656 41.255L39.6606 41.2471C39.7988 41.008 40.1047 40.9263 40.3437 41.0645ZM8.65626 41.0645C8.89532 40.9263 9.20117 41.008 9.3394 41.2471L9.34398 41.255C9.48234 41.494 9.40077 41.7999 9.16178 41.9382C8.9228 42.0766 8.61691 41.995 8.47855 41.756L8.47371 41.7477C8.33548 41.5086 8.41721 41.2027 8.65626 41.0645ZM15.0618 47.8382C15.2001 47.5992 15.506 47.5177 15.745 47.656L15.7529 47.6606C15.992 47.7988 16.0737 48.1047 15.9355 48.3437C15.7973 48.5828 15.4914 48.6645 15.2523 48.5263L15.244 48.5214C15.005 48.3831 14.9234 48.0772 15.0618 47.8382ZM33.9382 47.8382C34.0766 48.0772 33.995 48.3831 33.756 48.5214L33.7477 48.5263C33.5086 48.6645 33.2027 48.5828 33.0645 48.3437C32.9263 48.1047 33.008 47.7988 33.2471 47.6606L33.255 47.656C33.494 47.5177 33.7999 47.5992 33.9382 47.8382ZM23.9953 50.4999C23.9953 50.2237 24.2193 49.9999 24.4954 50H24.5046C24.7807 49.9999 25.0047 50.2237 25.0047 50.4999C25.0048 50.776 24.781 50.9999 24.5049 51H24.4951C24.219 50.9999 23.9952 50.776 23.9953 50.4999Z" fill="white"/>
<path d="M24.6709 6.84808V8.97458" stroke="#00FFFF"/>
<path d="M47.5 33C47.5 45.9887 37.1927 56.5 24.5 56.5C11.8073 56.5 1.5 45.9887 1.5 33C1.5 20.0113 11.8073 9.5 24.5 9.5C37.1927 9.5 47.5 20.0113 47.5 33Z" stroke="black"/>
<path opacity="0.2" d="M24.5 56.5058C37.4787 56.5058 48 45.9845 48 33.0058C48 20.0271 37.4787 9.5058 24.5 9.5058C11.5213 9.5058 1 20.0271 1 33.0058C1 45.9845 11.5213 56.5058 24.5 56.5058Z" stroke="white"/>
<path d="M23.6184 1L25.7225 1C27.175 1 28.3525 2.19008 28.3525 3.65812C28.3525 5.12616 27.175 6.31624 25.7225 6.31624L23.6184 6.31624C22.1659 6.31624 20.9884 5.12616 20.9884 3.65812C20.9884 2.19008 22.1659 1 23.6184 1Z" stroke="#00FFFF"/>
<path fill-rule="evenodd" clip-rule="evenodd" d="M24.4951 14H24.5049C24.781 14.0001 25.0048 14.224 25.0047 14.5001C25.0047 14.7763 24.7807 15.0001 24.5046 15H24.4954C24.2193 15.0001 23.9953 14.7763 23.9953 14.5001C23.9952 14.224 24.219 14.0001 24.4951 14ZM33.0645 16.6563C33.2027 16.4172 33.5086 16.3355 33.7477 16.4737L33.756 16.4786C33.995 16.6169 34.0766 16.9228 33.9382 17.1618C33.7999 17.4008 33.494 17.4823 33.255 17.344L33.2471 17.3394C33.008 17.2012 32.9263 16.8953 33.0645 16.6563ZM15.9355 16.6563C16.0737 16.8953 15.992 17.2012 15.7529 17.3394L15.745 17.344C15.506 17.4823 15.2001 17.4008 15.0618 17.1618C14.9234 16.9228 15.005 16.6169 15.244 16.4786L15.2523 16.4737C15.4914 16.3355 15.7973 16.4172 15.9355 16.6563ZM39.8382 23.0618C40.0772 22.9234 40.3831 23.005 40.5214 23.244L40.5263 23.2523C40.6645 23.4914 40.5828 23.7973 40.3437 23.9355C40.1047 24.0737 39.7988 23.992 39.6606 23.7529L39.656 23.745C39.5177 23.506 39.5992 23.2001 39.8382 23.0618ZM9.16178 23.0618C9.40077 23.2001 9.48234 23.506 9.34398 23.745L9.3394 23.7529C9.20117 23.992 8.89532 24.0737 8.65626 23.9355C8.41721 23.7973 8.33548 23.4914 8.47371 23.2523L8.47855 23.244C8.61691 23.005 8.9228 22.9234 9.16178 23.0618ZM6.50013 31.9953C6.77627 31.9953 7.00007 32.2193 7 32.4954V32.5046C7.00007 32.7807 6.77627 33.0047 6.50013 33.0047C6.22399 33.0048 6.00007 32.781 6 32.5049V32.4951C6.00007 32.219 6.22399 31.9952 6.50013 31.9953ZM42.4999 31.9953C42.776 31.9952 42.9999 32.219 43 32.4951V32.5049C42.9999 32.781 42.776 33.0048 42.4999 33.0047C42.2237 33.0047 41.9999 32.7807 42 32.5046V32.4954C41.9999 32.2193 42.2237 31.9953 42.4999 31.9953ZM40.3437 41.0645C40.5828 41.2027 40.6645 41.5086 40.5263 41.7477L40.5214 41.756C40.3831 41.995 40.0772 42.0766 39.8382 41.9382C39.5992 41.7999 39.5177 41.494 39.656 41.255L39.6606 41.2471C39.7988 41.008 40.1047 40.9263 40.3437 41.0645ZM8.65626 41.0645C8.89532 40.9263 9.20117 41.008 9.3394 41.2471L9.34398 41.255C9.48234 41.494 9.40077 41.7999 9.16178 41.9382C8.9228 42.0766 8.61691 41.995 8.47855 41.756L8.47371 41.7477C8.33548 41.5086 8.41721 41.2027 8.65626 41.0645ZM15.0618 47.8382C15.2001 47.5992 15.506 47.5177 15.745 47.656L15.7529 47.6606C15.992 47.7988 16.0737 48.1047 15.9355 48.3437C15.7973 48.5828 15.4914 48.6645 15.2523 48.5263L15.244 48.5214C15.005 48.3831 14.9234 48.0772 15.0618 47.8382ZM33.9382 47.8382C34.0766 48.0772 33.995 48.3831 33.756 48.5214L33.7477 48.5263C33.5086 48.6645 33.2027 48.5828 33.0645 48.3437C32.9263 48.1047 33.008 47.7988 33.2471 47.6606L33.255 47.656C33.494 47.5177 33.7999 47.5992 33.9382 47.8382ZM23.9953 50.4999C23.9953 50.2237 24.2193 49.9999 24.4954 50H24.5046C24.7807 49.9999 25.0047 50.2237 25.0047 50.4999C25.0048 50.776 24.781 50.9999 24.5049 51H24.4951C24.219 50.9999 23.9952 50.776 23.9953 50.4999Z" fill="white"/>
<path d="M24.6709 6.84766V9.34766" stroke="#00FFFF"/>
<path d="M24.5 9.50977C28.0012 9.50977 31.4582 10.2921 34.6182 11.7996C37.7783 13.3071 40.5615 15.5016 42.7646 18.2228C44.9677 20.944 46.5349 24.1231 47.3516 27.5277C48.1684 30.9323 48.2141 34.4764 47.4854 37.9009" stroke="#00FFFF" stroke-linecap="round"/>
</svg>
